HIERARCHY
ROOT pelvis
{
  OFFSET 0 100 0
  CHANNELS 6 Xposition Yposition Zposition Zrotation Xrotation Yrotation
  JOINT pelvis_right_femur
  {
    OFFSET -10.78128 -3.44521 -0.5502486
    CHANNELS 3 Zrotation Xrotation Yrotation
    JOINT right_femur_tibia
    {
      OFFSET -0.8047443 -44.0398 -0.1307829
      CHANNELS 3 Zrotation Xrotation Yrotation
      JOINT right_tibia_foot
      {
        OFFSET 3.006224 -47.83518 -5
        CHANNELS 3 Zrotation Xrotation Yrotation
        End Site
        {
          OFFSET 0 -5 15
        }
      }
    }
  }
  JOINT pelvis_left_femur
  {
    OFFSET 10.78128 -3.44521 -0.5502486
    CHANNELS 3 Zrotation Xrotation Yrotation
    JOINT left_femur_tibia
    {
      OFFSET 0.8047443 -44.0398 -0.1307829
      CHANNELS 3 Zrotation Xrotation Yrotation
      JOINT left_tibia_foot
      {
        OFFSET -4.370144 -48.10324 -4.275266
        CHANNELS 3 Zrotation Xrotation Yrotation
        End Site
        {
          OFFSET 0 -5 15
        }
      }
    }
  }
  JOINT pelvis_spine1
  {
    OFFSET 0 6.468898 -3.129235
    CHANNELS 3 Zrotation Xrotation Yrotation
    JOINT spine1
    {
      OFFSET 0 23.15396 4.99043
      CHANNELS 3 Zrotation Xrotation Yrotation
      JOINT spine2
      {
        OFFSET 0 20.79997 -5.064912
        CHANNELS 3 Zrotation Xrotation Yrotation
        JOINT neck
        {
          OFFSET 0 14.38658 9.616178
          CHANNELS 3 Zrotation Xrotation Yrotation
          End Site
          {
            OFFSET 0 20 0
          }
        }
      }
      JOINT right_manubrium
      {
        OFFSET -5.722621 16.35077 3.967754
        CHANNELS 3 Zrotation Xrotation Yrotation
        JOINT right_clavicle
        {
          OFFSET -13.16364 1.694482 -4.693211
          CHANNELS 3 Zrotation Xrotation Yrotation
          JOINT right_humerus
          {
            OFFSET -28.5034 -0.3100689 -2.792744
            CHANNELS 3 Zrotation Xrotation Yrotation
            JOINT right_radius
            {
              OFFSET -25.15693 0.02248979 -1.271978
              CHANNELS 3 Zrotation Xrotation Yrotation
              End Site
              {
                OFFSET -15 0 0
              }
            }
          }
        }
      }
      JOINT left_manubrium
      {
        OFFSET 5.722621 16.35077 3.967754
        CHANNELS 3 Zrotation Xrotation Yrotation
        JOINT left_clavicle
        {
          OFFSET 13.16364 1.694482 -4.693211
          CHANNELS 3 Zrotation Xrotation Yrotation
          JOINT left_humerus
          {
            OFFSET 29.39168 -1.063119 -2.237045
            CHANNELS 3 Zrotation Xrotation Yrotation
            JOINT left_radius
            {
              OFFSET 24.59957 -0.9528479 0.9047498
              CHANNELS 3 Zrotation Xrotation Yrotation
              End Site
              {
                OFFSET 15 -0 -0
              }
            }
          }
        }
      }
    }
  }
}
MOTION
Frames: 19
Frame Time: 0.0416666666667
0 103.5113 0 1.497758 -3.258416 0.1323864 1.315686 -10.80188 6.887811 -0 40.0505 -0 -6.783145 -15.74381 -3.851427 -6.560848 12.25803 -24.04043 -0 5.882641 -0 0.4569313 -18.87691 23.12587 -0.1891329 -1.721493 3.73649 -0.2954367 6.422601 -6.886562 1.870926 22.44383 8.416612 5.92836 -21.28804 8.859214 5.895178 -17.51783 9.582534 88.23488 36.73665 -23.09247 -0 0 16.79932 -6.793431 8.824582 1.787062 8.374953 -20.92892 -2.159804 -101.1167 42.53703 27.61723 0 0 -24.3539 -9.137615 20.29788 27.63004
0.1429693 103.6972 1.299992 0.7617543 -2.670209 0.09129525 2.523347 -13.18284 8.391767 -0 42.27459 -0 -6.624957 -15.36443 -4.826091 -5.959323 12.37595 -24.37414 -0 6.445721 -0 -0.9256231 -20.07523 23.11736 -0.1755578 -1.697557 3.760084 -0.2202982 6.525784 -6.966075 1.835353 22.34835 8.419973 5.887992 -21.41325 8.849837 5.891922 -17.51148 9.64691 88.38745 36.78518 -23.2568 -0 0 16.60989 -6.85652 8.947735 1.889684 8.308745 -21.02071 -2.163914 -100.7732 42.28141 27.36229 0 0 -24.56785 -8.914932 20.03027 27.42067
0.2963176 103.7351 2.868174 0.04274929 -1.678579 0.0367591 3.715092 -17.94034 7.898865 -0 39.26384 -0 -6.979374 -12.6259 -4.424404 -5.587982 12.24788 -23.12914 -0 6.598624 -0 -0.8564086 -21.37884 22.42242 -0.1897555 -1.552834 3.754777 0.2127185 6.903637 -7.320359 1.670632 22.01432 8.387765 5.647731 -22.00114 8.799669 5.87994 -17.44161 9.952852 88.92134 36.78251 -23.88954 -0 0 15.7443 -7.064268 9.344284 2.380789 7.886185 -21.24427 -2.261626 -99.32625 41.23565 26.24711 0 0 -25.31167 -8.1244 18.83788 26.58297
0.4563591 103.6132 4.680339 -0.4804331 -0.7170798 0.006651532 4.633107 -22.02726 7.60397 -0 36.23908 -0 -7.024596 -10.82816 -4.198753 -5.330883 12.2331 -22.07688 -0 6.561111 -0 -0.6647886 -22.40446 21.74301 -0.1671735 -1.500088 3.782763 0.4061926 7.123148 -7.513641 1.596269 21.79806 8.378636 5.536458 -22.30005 8.78409 5.868435 -17.41956 10.09992 89.26165 36.80877 -24.27895 -0 0 15.32493 -7.12943 9.558926 2.60109 7.72391 -21.41917 -2.282971 -98.57278 40.66738 25.67191 0 0 -25.82222 -7.654029 18.21413 26.12043
0.6274759 103.2542 6.841997 -0.8136514 0.4033928 0.01778863 5.315948 -26.32353 7.02718 -0 31.56546 -0 -6.820991 -9.288112 -3.832289 -5.248947 12.3743 -20.81661 -0 6.367013 -0 0.1331069 -23.25796 21.00582 -0.1145656 -1.445018 3.872053 0.5943793 7.434289 -7.743626 1.501763 21.49813 8.394283 5.435724 -22.63137 8.755197 5.855178 -17.40544 10.27178 89.72522 36.96465 -24.7637 -0 0 14.79815 -7.336513 9.931729 2.894443 7.583295 -21.72747 -2.277539 -97.6035 39.85464 24.94857 0 0 -26.50962 -6.958044 17.4327 25.47194
0.7990162 102.6419 9.429682 -1.004609 1.54021 0.087289 5.808776 -30.32257 6.423171 -0 26.34003 -0 -6.465774 -7.938533 -3.497236 -5.256299 12.74155 -19.59155 -0 6.363638 -0 1.042578 -23.94312 20.25124 -0.06137152 -1.401311 3.976407 0.7223731 7.717298 -7.928055 1.418971 21.23453 8.424056 5.374043 -22.87722 8.721161 5.845545 -17.39753 10.40982 90.13014 37.1684 -25.15965 -0 0 14.344 -7.617419 10.31889 3.166353 7.496824 -22.03752 -2.259209 -96.76891 39.09544 24.33185 0 0 -27.09845 -6.310858 16.76892 24.88153
0.9551307 101.8112 12.53493 -1.111547 2.637182 0.2426295 6.198498 -33.79198 5.879212 -0 21.14009 -0 -6.082812 -6.55162 -3.214969 -5.294254 13.3687 -18.49228 -0 6.881631 -0 1.761349 -24.4019 19.42246 -0.02355324 -1.345014 4.087049 0.8395337 8.001476 -8.092561 1.326135 20.99659 8.463103 5.325744 -23.08451 8.667741 5.840701 -17.38272 10.54803 90.49284 37.41388 -25.4856 -0 0 13.86612 -8.045364 10.76562 3.492216 7.40107 -22.3493 -2.251411 -95.94045 38.27401 23.72229 0 0 -27.58751 -5.656677 16.10818 24.27139
1.080612 100.8586 16.24299 -1.205439 3.573345 0.5228419 6.542767 -36.24965 5.434533 -0 16.80228 -0 -5.831537 -5.023164 -2.99345 -5.279988 14.2213 -17.61615 -0 8.268074 -0 1.766603 -24.49025 18.30561 -0.01529879 -1.273683 4.188238 0.941803 8.255391 -8.215116 1.227384 20.82304 8.505579 5.291481 -23.22943 8.593705 5.842328 -17.35949 10.67845 90.75121 37.67048 -25.67806 -0 0 13.40276 -8.616454 11.23204 3.862884 7.283812 -22.614 -2.266374 -95.20478 37.46211 23.18722 0 0 -27.87174 -5.076889 15.51152 23.70623
1.168435 99.93935 20.61417 -1.364462 4.228428 0.9679108 6.879422 -37.16921 5.067759 -0 14.04612 -0 -5.814346 -3.514922 -2.836813 -5.118485 15.18368 -16.99575 -0 10.83515 -0 0.4920107 -23.96933 16.57788 -0.04522486 -1.180517 4.276874 1.037998 8.476397 -8.291545 1.118801 20.72452 8.547894 5.264743 -23.3147 8.494625 5.850038 -17.32811 10.80746 90.87922 37.92729 -25.70741 -0 0 12.95108 -9.354435 11.71543 4.298403 7.123551 -22.81216 -2.31333 -94.56388 36.65261 22.7342 0 0 -27.90676 -4.585278 14.97047 23.18879
1.224288 99.24494 25.65767 -1.658251 4.49549 1.581893 7.227862 -36.15729 4.708093 -0 13.25049 -0 -6.039597 -2.444745 -2.760543 -4.726308 16.01652 -16.50171 -0 14.84774 -0 -2.346381 -22.47506 14.0457 -0.1188087 -1.06389 4.355079 1.123766 8.654473 -8.308791 1.001596 20.71427 8.587788 5.245062 -23.33165 8.369418 5.861983 -17.29525 10.93323 90.83866 38.179 -25.52768 -0 0 12.53647 -10.2746 12.20635 4.80571 6.913415 -22.92217 -2.393965 -94.04777 35.86412 22.39638 0 0 -27.64547 -4.206363 14.50333 22.73855
1.262824 98.95907 31.31315 -2.132554 4.309677 2.274138 7.66271 -33.28866 4.358494 -0 14.26779 -0 -6.424911 -2.262825 -2.806882 -4.077476 16.33176 -15.78118 -0 20.56149 -0 -6.196237 -19.58948 11.08463 -0.2391348 -0.9227891 4.432237 1.193677 8.786297 -8.255988 0.876765 20.79522 8.624115 5.231096 -23.27607 8.21798 5.873639 -17.27226 11.05479 90.59552 38.42866 -25.09346 -0 0 12.18375 -11.40416 12.7091 5.400484 6.650627 -22.93119 -2.504195 -93.66244 35.09303 22.19156 0 0 -27.06792 -3.941011 14.11125 22.35554
1.298767 99.20403 37.44113 -2.764971 3.63965 2.813585 8.293373 -29.24104 4.175854 -0 16.43785 -0 -6.867865 -3.110929 -3.005013 -3.260813 15.58371 -14.40537 -0 28.26028 -0 -9.485333 -15.20462 8.802717 -0.4083456 -0.7582518 4.522634 1.237925 8.867284 -8.119474 0.7478452 20.96568 8.655867 5.221488 -23.14299 8.043342 5.87718 -17.27657 11.16797 90.10762 38.68101 -24.34737 -0 0 11.93162 -12.77413 13.23205 6.100509 6.339523 -22.82616 -2.633352 -93.40903 34.33334 22.13653 0 0 -26.17087 -3.781459 13.7947 22.03424
1.350654 100.0025 43.81113 -3.353438 2.504132 2.889476 8.987705 -24.8297 4.29056 -0 18.64008 -0 -7.285454 -4.728361 -3.258437 -2.523976 13.10065 -12.35462 -0 38.03959 -0 -10.63959 -10.03336 8.251383 -0.6282579 -0.5729582 4.644426 1.245808 8.892068 -7.884893 0.6210542 21.21686 8.680601 5.211778 -22.93127 7.852674 5.860331 -17.33225 11.26663 89.32433 38.93475 -23.22093 -0 0 11.83211 -14.41491 13.78514 6.927753 5.989111 -22.59156 -2.764476 -93.2767 33.57207 22.24108 0 0 -24.97608 -3.708063 13.54563 21.75858
1.455467 101.2611 50.1134 -3.416333 1.058071 2.362106 9.0653 -20.08835 4.403401 -0 19.30554 -0 -7.535107 -6.697531 -3.284707 -2.25098 8.344381 -10.39032 -0 49.03509 -0 -9.783002 -5.639151 9.209481 -0.900203 -0.3721816 4.817056 1.207691 8.851663 -7.538255 0.5067149 21.53266 8.692223 5.192602 -22.64642 7.658646 5.805921 -17.47014 11.34225 88.18677 39.17151 -21.63748 -0 0 11.9552 -16.33823 14.36858 7.901641 5.612742 -22.20534 -2.87443 -93.24724 32.79899 22.51047 0 0 -23.53481 -3.694939 13.35011 21.50647
1.637795 102.7634 56.07868 -2.492511 -0.4443323 1.496952 7.832904 -14.28865 3.978755 -0 17.34509 -0 -7.393838 -8.524271 -2.881364 -2.672288 1.587511 -9.36029 -0 58.66149 -0 -8.699297 -3.573324 10.4334 -1.223166 -0.1647807 5.057351 1.119873 8.734797 -7.072172 0.4190838 21.88714 8.678317 5.147998 -22.30616 7.478091 5.693244 -17.72427 11.38575 86.64451 39.34439 -19.53476 -0 0 12.38178 -18.51002 14.95989 9.028276 5.226164 -21.64181 -2.936132 -93.29351 32.01278 22.94074 0 0 -21.93934 -3.71278 13.18462 21.25217
1.848316 104.1984 61.64195 -0.8501685 -1.870576 0.7340431 5.80353 -7.515313 3.200851 -0 13.73462 -0 -6.78685 -9.649472 -2.277878 -3.321613 -5.83169 -8.942538 -0 63.54976 -0 -8.412407 -3.915548 11.41205 -1.589613 0.03578038 5.37546 0.9889847 8.535561 -6.496212 0.3733515 22.24208 8.619458 5.057313 -21.94279 7.325959 5.503089 -18.1225 11.39137 84.69448 39.37643 -16.91233 -0 0 13.17984 -20.8258 15.50673 10.28605 4.845119 -20.88723 -2.924424 -93.37595 31.22222 23.5098 0 0 -20.3306 -3.730982 13.01063 20.97061
2.015893 105.2492 66.92725 0.5640716 -3.177921 0.234924 4.298258 -1.145532 2.730894 -0 10.62354 -0 -5.904861 -10.1313 -1.861643 -3.205587 -12.5429 -8.0275 -0 61.98558 -0 -8.200791 -5.196058 12.71072 -1.979261 0.2113325 5.774956 0.8303305 8.269821 -5.846219 0.3795735 22.54649 8.494815 4.902464 -21.596 7.207252 5.225811 -18.67354 11.36177 82.43342 39.18246 -13.88989 -0 0 14.36653 -23.12016 15.94361 11.61905 4.484027 -19.96795 -2.825302 -93.43982 30.43236 24.16994 0 0 -18.88661 -3.716298 12.76856 20.64196
2.151971 105.7025 72.10582 1.118384 -4.200686 -0.1439441 3.891569 3.810782 2.706382 -0 8.947257 -0 -4.995263 -10.813 -1.69175 -1.896559 -17.97954 -6.244519 -0 54.91005 -0 -7.364976 -6.066226 14.55098 -2.354749 0.3415537 6.255676 0.6582929 7.989035 -5.182561 0.4374427 22.74397 8.294349 4.677722 -21.29652 7.115817 4.868907 -19.35675 11.31091 80.08237 38.70914 -10.73096 -0 0 15.88039 -25.21638 16.22815 12.94442 4.15668 -18.96907 -2.645105 -93.42798 29.62845 24.85706 0 0 -17.77529 -3.636968 12.38471 20.26084
2.330297 105.5049 77.32161 0.9071958 -4.707498 -0.5737177 4.184238 7.475303 2.860224 -0 8.341295 -0 -4.172346 -12.30529 -1.565125 0.1086891 -22.15716 -4.177184 -0 44.74459 -0 -6.181462 -6.178778 16.40525 -2.666762 0.411189 6.810522 0.4788411 7.772538 -4.574446 0.5355107 22.79107 8.028912 4.395281 -21.05299 7.041563 4.460118 -20.1196 11.26204 77.94038 37.96545 -7.791027 -0 0 17.58409 -26.97867 16.36295 14.16842 3.875284 -18.01671 -2.414872 -93.31105 28.78199 25.51543 0 0 -17.08405 -3.479668 11.79896 19.84827
